<svg width="296" height="57" viewBox="0 0 296 57" fill="none" xmlns="http://www.w3.org/2000/svg">
<path d="M84.68 18.2H80.68V11H91.08V42.2H92.96V42.6L89.24 47.64H88.96V43H82.8V47.64H82.52L78.8 42.6V42.2H80.68V27C81.56 27 82.7333 26.5467 84.2 25.64C85.2667 24.9733 86.2267 24.0533 87.08 22.88V11.8H84.68V18.2ZM87.08 42.2V24.12C86.4133 24.92 85.6133 25.64 84.68 26.28V42.2H87.08ZM99.7422 27C100.569 26.3067 101.369 25.52 102.142 24.64V11H106.142V43H102.142V25.84L101.222 26.72C100.556 27.3333 100.062 27.7733 99.7422 28.04V43H95.7422V11H99.7422V27ZM120.556 43H110.156V11H120.556V19.4C120.05 19.4267 119.33 19.5733 118.396 19.84C117.463 20.1067 116.69 20.4533 116.076 20.88C114.903 21.68 114.316 22.4533 114.316 23.2C114.316 23.9467 114.903 24.72 116.076 25.52C116.69 25.9467 117.463 26.2933 118.396 26.56C119.33 26.8267 120.05 26.9733 120.556 27V43ZM116.556 26.72C115.676 26.32 114.876 25.6933 114.156 24.84V42.2H116.556V26.72ZM114.156 21.6C114.77 20.7733 115.57 20.1467 116.556 19.72V11.8H114.156V21.6ZM128.57 43H124.57V11H128.57V24.64C128.917 25.0667 129.41 25.5733 130.05 26.16C130.45 26.56 130.757 26.84 130.97 27V11H134.97V43H130.97V28.04C130.384 27.56 129.584 26.8267 128.57 25.84V43ZM149.384 43H138.984V11H142.984V24.48C143.758 25.6 144.718 26.52 145.864 27.24C147.331 28.1467 148.504 28.6 149.384 28.6V43ZM152.104 43V11H156.104V43H152.104ZM145.384 27.88C144.504 27.2933 143.704 26.5733 142.984 25.72V42.2H145.384V27.88ZM166.237 25.04C165.624 25.04 165.117 25.5333 164.717 26.52C164.744 27.24 164.851 28.7867 165.037 31.16C165.251 33.5067 165.357 35.3067 165.357 36.56C165.357 38.5333 165.211 39.9467 164.917 40.8C164.704 41.52 164.237 42.0933 163.517 42.52H163.917C164.771 42.52 165.464 42.2267 165.997 41.64C166.637 40.92 166.957 38.8267 166.957 35.36V30.52H171.357C171.357 35.4 169.904 39.2133 166.997 41.96C166.037 42.8667 165.011 43.32 163.917 43.32C162.904 43.32 162.064 42.9467 161.397 42.2C160.731 41.4533 160.397 40.52 160.397 39.4C160.397 38.92 160.531 38.5067 160.797 38.16C161.091 37.7867 161.504 37.6 162.037 37.6C162.597 37.6 163.011 37.7867 163.277 38.16C163.571 38.5067 163.717 38.92 163.717 39.4C163.717 39.88 163.557 40.28 163.237 40.6C162.917 40.92 162.517 41.08 162.037 41.08C161.824 41.08 161.664 41.0667 161.557 41.04C161.771 41.4933 162.091 41.8533 162.517 42.12C163.024 42.0133 163.437 41.6933 163.757 41.16C164.077 40.6 164.237 40.0933 164.237 39.64C164.237 39.1067 164.144 38.5467 163.957 37.96C163.797 37.3467 163.544 36.6267 163.197 35.8C162.877 34.9733 162.651 34.3333 162.517 33.88C162.491 33.8 162.317 33.2533 161.997 32.24C161.677 31.2 161.451 30.44 161.317 29.96C161.184 29.48 160.997 28.7867 160.757 27.88C160.517 26.9467 160.344 26.1067 160.237 25.36C160.157 24.5867 160.117 23.84 160.117 23.12C160.117 21.76 160.224 20.3867 160.437 19C160.677 17.5867 161.011 16.2533 161.437 15C161.891 13.72 162.491 12.68 163.237 11.88C163.984 11.08 164.837 10.68 165.797 10.68C166.757 10.68 167.611 11.04 168.357 11.76C169.131 12.48 169.717 13.4133 170.117 14.56C170.517 15.7067 170.824 16.8667 171.037 18.04C171.251 19.1867 171.357 20.32 171.357 21.44H166.957V12C166.717 11.6 166.317 11.4 165.757 11.4C165.144 11.4 164.757 11.6 164.597 12C164.464 12.88 164.397 14.6267 164.397 17.24C164.397 19.0267 164.451 21.2533 164.557 23.92C164.557 24.2133 164.584 24.6533 164.637 25.24C164.851 24.9733 165.051 24.76 165.237 24.6C165.904 24.0133 166.797 23.72 167.917 23.72C169.357 23.72 170.331 24.2533 170.837 25.32C171.184 26.04 171.357 26.9867 171.357 28.16H166.957V25.8C166.957 25.2933 166.717 25.04 166.237 25.04ZM193.219 19.4H189.219V11H199.619V43H195.619V24.12C194.925 24.92 194.125 25.64 193.219 26.28V43H189.219V27C190.099 27 191.272 26.5467 192.739 25.64C193.805 24.9733 194.765 24.0533 195.619 22.88V11.8H193.219V19.4ZM209.753 25.04C209.139 25.04 208.633 25.5333 208.233 26.52C208.259 27.24 208.366 28.7867 208.553 31.16C208.766 33.5067 208.873 35.3067 208.873 36.56C208.873 38.5333 208.726 39.9467 208.433 40.8C208.219 41.52 207.753 42.0933 207.033 42.52H207.433C208.286 42.52 208.979 42.2267 209.513 41.64C210.153 40.92 210.473 38.8267 210.473 35.36V30.52H214.873C214.873 35.4 213.419 39.2133 210.513 41.96C209.553 42.8667 208.526 43.32 207.433 43.32C206.419 43.32 205.579 42.9467 204.913 42.2C204.246 41.4533 203.913 40.52 203.913 39.4C203.913 38.92 204.046 38.5067 204.313 38.16C204.606 37.7867 205.019 37.6 205.553 37.6C206.113 37.6 206.526 37.7867 206.793 38.16C207.086 38.5067 207.233 38.92 207.233 39.4C207.233 39.88 207.073 40.28 206.753 40.6C206.433 40.92 206.033 41.08 205.553 41.08C205.339 41.08 205.179 41.0667 205.073 41.04C205.286 41.4933 205.606 41.8533 206.033 42.12C206.539 42.0133 206.953 41.6933 207.273 41.16C207.593 40.6 207.753 40.0933 207.753 39.64C207.753 39.1067 207.659 38.5467 207.473 37.96C207.313 37.3467 207.059 36.6267 206.713 35.8C206.393 34.9733 206.166 34.3333 206.033 33.88C206.006 33.8 205.833 33.2533 205.513 32.24C205.193 31.2 204.966 30.44 204.833 29.96C204.699 29.48 204.513 28.7867 204.273 27.88C204.033 26.9467 203.859 26.1067 203.753 25.36C203.673 24.5867 203.633 23.84 203.633 23.12C203.633 21.76 203.739 20.3867 203.953 19C204.193 17.5867 204.526 16.2533 204.953 15C205.406 13.72 206.006 12.68 206.753 11.88C207.499 11.08 208.353 10.68 209.313 10.68C210.273 10.68 211.126 11.04 211.873 11.76C212.646 12.48 213.233 13.4133 213.633 14.56C214.033 15.7067 214.339 16.8667 214.553 18.04C214.766 19.1867 214.873 20.32 214.873 21.44H210.473V12C210.233 11.6 209.833 11.4 209.273 11.4C208.659 11.4 208.273 11.6 208.113 12C207.979 12.88 207.913 14.6267 207.913 17.24C207.913 19.0267 207.966 21.2533 208.073 23.92C208.073 24.2133 208.099 24.6533 208.153 25.24C208.366 24.9733 208.566 24.76 208.753 24.6C209.419 24.0133 210.313 23.72 211.433 23.72C212.873 23.72 213.846 24.2533 214.353 25.32C214.699 26.04 214.873 26.9867 214.873 28.16H210.473V25.8C210.473 25.2933 210.233 25.04 209.753 25.04ZM222.03 43.32C221.017 43.32 220.177 42.9467 219.51 42.2C218.843 41.4533 218.51 40.52 218.51 39.4C218.51 38.92 218.643 38.5067 218.91 38.16C219.203 37.7867 219.617 37.6 220.15 37.6C220.71 37.6 221.123 37.7867 221.39 38.16C221.683 38.5067 221.83 38.92 221.83 39.4C221.83 39.88 221.67 40.28 221.35 40.6C221.03 40.92 220.63 41.08 220.15 41.08C219.937 41.08 219.777 41.0667 219.67 41.04C219.963 41.6533 220.337 41.96 220.79 41.96C221.883 41.96 222.43 41.3467 222.43 40.12C222.43 39.7467 222.363 39.2667 222.23 38.68C222.097 38.0933 221.963 37.6133 221.83 37.24C221.723 36.84 221.523 36.24 221.23 35.44C220.963 34.6133 220.79 34.0933 220.71 33.88C219.403 29.8267 218.75 26.28 218.75 23.24C218.75 22.0667 218.857 20.8 219.07 19.44C219.283 18.08 219.59 16.7333 219.99 15.4C220.417 14.04 221.003 12.92 221.75 12.04C222.523 11.1333 223.377 10.68 224.31 10.68C225.27 10.68 226.123 11.1067 226.87 11.96C227.617 12.7867 228.19 13.8533 228.59 15.16C228.99 16.44 229.283 17.68 229.47 18.88C229.683 20.0533 229.817 21.1733 229.87 22.24H225.47V12C225.23 11.6 224.83 11.4 224.27 11.4C223.657 11.4 223.27 11.6 223.11 12C222.977 14 222.91 15.5333 222.91 16.6C222.91 17.9867 223.003 20.4267 223.19 23.92C223.243 25.3333 223.363 26.9067 223.55 28.64C223.737 30.3733 223.83 31.88 223.83 33.16C223.83 34.52 223.75 36.08 223.59 37.84C223.43 39.5733 223.257 40.7467 223.07 41.36C222.83 42.0533 222.417 42.44 221.83 42.52H222.03C222.67 42.52 223.283 42.2 223.87 41.56C224.217 41.16 224.563 40.3333 224.91 39.08C225.283 37.8 225.47 36.5733 225.47 35.4V29.32H229.87C229.523 34.8667 227.857 39.0533 224.87 41.88C223.857 42.84 222.91 43.32 222.03 43.32ZM239.87 25.04C239.257 25.04 238.75 25.5333 238.35 26.52C238.377 27.24 238.483 28.7867 238.67 31.16C238.883 33.5067 238.99 35.3067 238.99 36.56C238.99 38.5333 238.843 39.9467 238.55 40.8C238.337 41.52 237.87 42.0933 237.15 42.52H237.55C238.403 42.52 239.097 42.2267 239.63 41.64C240.27 40.92 240.59 38.8267 240.59 35.36V30.52H244.99C244.99 35.4 243.537 39.2133 240.63 41.96C239.67 42.8667 238.643 43.32 237.55 43.32C236.537 43.32 235.697 42.9467 235.03 42.2C234.363 41.4533 234.03 40.52 234.03 39.4C234.03 38.92 234.163 38.5067 234.43 38.16C234.723 37.7867 235.137 37.6 235.67 37.6C236.23 37.6 236.643 37.7867 236.91 38.16C237.203 38.5067 237.35 38.92 237.35 39.4C237.35 39.88 237.19 40.28 236.87 40.6C236.55 40.92 236.15 41.08 235.67 41.08C235.457 41.08 235.297 41.0667 235.19 41.04C235.403 41.4933 235.723 41.8533 236.15 42.12C236.657 42.0133 237.07 41.6933 237.39 41.16C237.71 40.6 237.87 40.0933 237.87 39.64C237.87 39.1067 237.777 38.5467 237.59 37.96C237.43 37.3467 237.177 36.6267 236.83 35.8C236.51 34.9733 236.283 34.3333 236.15 33.88C236.123 33.8 235.95 33.2533 235.63 32.24C235.31 31.2 235.083 30.44 234.95 29.96C234.817 29.48 234.63 28.7867 234.39 27.88C234.15 26.9467 233.977 26.1067 233.87 25.36C233.79 24.5867 233.75 23.84 233.75 23.12C233.75 21.76 233.857 20.3867 234.07 19C234.31 17.5867 234.643 16.2533 235.07 15C235.523 13.72 236.123 12.68 236.87 11.88C237.617 11.08 238.47 10.68 239.43 10.68C240.39 10.68 241.243 11.04 241.99 11.76C242.763 12.48 243.35 13.4133 243.75 14.56C244.15 15.7067 244.457 16.8667 244.67 18.04C244.883 19.1867 244.99 20.32 244.99 21.44H240.59V12C240.35 11.6 239.95 11.4 239.39 11.4C238.777 11.4 238.39 11.6 238.23 12C238.097 12.88 238.03 14.6267 238.03 17.24C238.03 19.0267 238.083 21.2533 238.19 23.92C238.19 24.2133 238.217 24.6533 238.27 25.24C238.483 24.9733 238.683 24.76 238.87 24.6C239.537 24.0133 240.43 23.72 241.55 23.72C242.99 23.72 243.963 24.2533 244.47 25.32C244.817 26.04 244.99 26.9867 244.99 28.16H240.59V25.8C240.59 25.2933 240.35 25.04 239.87 25.04ZM252.867 43H248.867V11H252.867V24.64C253.214 25.0667 253.707 25.5733 254.347 26.16C254.747 26.56 255.054 26.84 255.267 27V11H259.267V43H255.267V28.04C254.681 27.56 253.881 26.8267 252.867 25.84V43ZM267.281 21.6C267.895 20.7733 268.695 20.1467 269.681 19.72V11H273.681V19.4C273.175 19.4267 272.455 19.5733 271.521 19.84C270.588 20.1067 269.815 20.4533 269.201 20.88C268.028 21.68 267.441 22.4533 267.441 23.2C267.441 23.9467 268.028 24.72 269.201 25.52C269.815 25.9467 270.588 26.2933 271.521 26.56C272.455 26.8267 273.175 26.9733 273.681 27V43H269.681V26.72C268.801 26.32 268.001 25.6933 267.281 24.84V43H263.281V11H267.281V21.6ZM281.695 27C282.522 26.3067 283.322 25.52 284.095 24.64V11H288.095V43H284.095V25.84L283.175 26.72C282.509 27.3333 282.015 27.7733 281.695 28.04V43H277.695V11H281.695V27Z" fill="white"/>
<rect x="1" y="54" width="11.0321" height="46.0252" transform="rotate(-90 1 54)" fill="#C03A3A"/>
<rect x="14.15" y="36.8389" width="11.0321" height="46.0252" transform="rotate(-90 14.15 36.8389)" fill="#C03A3A"/>
<rect x="28.6151" y="19.6787" width="11.0321" height="46.0252" transform="rotate(-90 28.6151 19.6787)" fill="#C03A3A"/>
<line y1="-0.5" x2="17.4098" y2="-0.5" transform="matrix(0.906388 -0.422447 0.472685 0.881231 1 44.1934)" stroke="#C03A3A"/>
<line y1="-0.5" x2="17.4098" y2="-0.5" transform="matrix(0.906388 -0.422447 0.472685 0.881231 44.3951 44.1934)" stroke="#C03A3A"/>
<line y1="-0.5" x2="17.4098" y2="-0.5" transform="matrix(0.906388 -0.422447 0.472685 0.881231 58.8602 27.0322)" stroke="#C03A3A"/>
<line y1="-0.5" x2="17.4098" y2="-0.5" transform="matrix(0.906388 -0.422447 0.472685 0.881231 14.15 27.0322)" stroke="#C03A3A"/>
</svg>
