<svg width="22" height="23" viewBox="0 0 22 23" fill="none" xmlns="http://www.w3.org/2000/svg">
<path d="M10.9991 0.0136719C4.93399 0.0136719 0 4.94766 0 11.0127C0 17.0778 4.93399 22.0118 10.9991 22.0118C13.4445 22.0118 15.7598 21.2263 17.7177 19.7204C18.4949 19.0384 18.4812 18.065 18.1219 17.4032C17.8946 16.9843 17.5481 16.6974 17.1457 16.5563L17.3299 16.35C17.6049 16.0412 17.7259 15.6296 17.6608 15.2217C17.5967 14.8139 17.3547 14.4592 16.9981 14.2492L14.5774 12.8322C14.0284 12.5114 13.2786 12.6296 12.8561 13.1044L12.319 13.7085C12.231 13.8075 12.1091 13.8625 11.9771 13.8625C11.8204 13.8625 11.681 13.7873 11.5949 13.6571L8.64437 9.20525C8.56923 9.09251 8.54903 8.95777 8.58572 8.82763C8.62237 8.69654 8.71037 8.5939 8.83411 8.53705L9.67828 8.14474C10.2713 7.87066 10.5903 7.20982 10.4372 6.57552L9.78003 3.8496C9.58389 3.03477 8.63247 2.56821 7.86528 2.92478L7.11185 3.274C5.99819 3.79095 5.17786 4.76712 4.86069 5.95317L4.7232 6.47013C4.47482 7.40045 4.56096 8.39407 4.96608 9.26755L5.64343 10.7286C6.637 12.8725 7.99358 14.801 9.67459 16.4618L10.2337 17.0136C11.0641 17.834 12.1631 18.3069 13.3299 18.3445L13.4812 18.3473C14.4912 18.3473 15.4647 18.0127 16.2593 17.4142C16.2749 17.4115 16.2905 17.4151 16.307 17.4106C16.9303 17.2364 17.2383 17.6965 17.3171 17.8414C17.5022 18.1842 17.5114 18.6846 17.1374 19.0146C15.3647 20.3767 13.2428 21.0971 11.0008 21.0971C5.44171 21.0971 0.918337 16.5737 0.918337 11.0146C0.918337 5.45547 5.44179 0.932095 11.0009 0.932095C16.5601 0.932095 21.0834 5.45547 21.0834 11.0146C21.0834 11.2676 21.2888 11.4729 21.5417 11.4729C21.7947 11.4729 22 11.2676 22 11.0146C21.9982 4.9477 17.0632 0.0136719 10.9991 0.0136719Z" fill="white"/>
</svg>
