<svg width="36" height="30" viewBox="0 0 36 30" fill="none" xmlns="http://www.w3.org/2000/svg">
<path d="M36 7.53461V5.50047C36 4.3368 35.0536 3.39109 33.8906 3.39109H24.094V3.15625C24.094 1.60586 22.8319 0.34375 21.2815 0.34375H2.8125C1.26141 0.34375 0 1.60586 0 3.15625V22.9844C0 24.5355 1.26141 25.7969 2.8125 25.7969H4.31227C4.79672 28.0012 6.76477 29.6556 9.1118 29.6556C11.4588 29.6556 13.4269 28.0012 13.9106 25.7969H24.1931C24.6769 28.0012 26.6449 29.6556 28.992 29.6556C31.3636 29.6556 33.3478 27.9667 33.8062 25.728C35.0606 25.4453 36 24.3231 36 22.9844V15.2852C36 15.113 35.9506 14.9251 35.8889 14.8141L33.4455 9.64398H33.8906C35.0536 9.64398 36 8.69758 36 7.53461ZM9.1118 27.5462C7.56366 27.5462 6.30773 26.2862 6.30773 24.7422C6.30773 23.2029 7.55923 21.9388 9.1118 21.9388C10.6617 21.9388 11.9152 23.2006 11.9152 24.7422C11.9152 26.2816 10.6648 27.5462 9.1118 27.5462ZM21.9846 23.6875H13.9106C13.4269 21.4832 11.4588 19.8294 9.1118 19.8294C6.76477 19.8294 4.79672 21.4832 4.31227 23.6875H2.8125C2.42508 23.6875 2.10938 23.3725 2.10938 22.9844V3.15625C2.10938 2.76883 2.42508 2.45312 2.8125 2.45312H21.2815C21.6689 2.45312 21.9846 2.76883 21.9846 3.15625V23.6875ZM24.094 9.64398H31.1126L33.2803 14.2305L33.2804 14.2306H24.094C24.094 13.5459 24.094 10.3291 24.094 9.64398ZM28.992 27.5462C27.4467 27.5462 26.1886 26.2883 26.1886 24.7422C26.1886 23.1998 27.4434 21.9388 28.992 21.9388C30.5426 21.9388 31.796 23.2009 31.796 24.7422C31.796 26.2843 30.5421 27.5462 28.992 27.5462ZM33.8906 16.3401V22.9844C33.8906 23.1553 33.8295 23.3128 33.7282 23.4344C33.1545 21.3581 31.2483 19.8295 28.992 19.8295C26.6449 19.8295 24.6769 21.4833 24.1931 23.6876H24.094V16.3401H33.8906ZM24.094 7.53461V5.50047H33.8906V7.53461C32.9256 7.53461 25.0577 7.53461 24.094 7.53461Z" fill="white"/>
</svg>
