<svg width="36" height="36" viewBox="0 0 36 36" fill="none" xmlns="http://www.w3.org/2000/svg">
<path d="M34.9453 0.179688H22.2188C21.6362 0.179688 21.1641 0.716875 21.1641 1.37969V6.17969C21.1641 6.8425 21.6362 7.37969 22.2188 7.37969H23.2734V9.77969H11.6719C11.0893 9.77969 10.6172 10.3169 10.6172 10.9797V15.7797C10.6172 16.4425 11.0893 16.9797 11.6719 16.9797H12.7266V19.3797H1.05469C0.472137 19.3797 0 19.9169 0 20.5797V25.3797C0 26.0425 0.472137 26.5797 1.05469 26.5797H2.10938V34.9797C2.10938 35.6425 2.58151 36.1797 3.16406 36.1797H13.7812C14.0202 36.1797 14.252 36.0875 14.4388 35.9178L35.6028 16.7178C35.8539 16.4903 36 16.145 36 15.7797C36 14.9884 36 2.23 36 1.37969C36 0.716875 35.5279 0.179688 34.9453 0.179688ZM23.2734 2.57969H33.8906V4.97969H23.2734V2.57969ZM12.7266 12.1797H23.2734V14.5797H12.7266V12.1797ZM2.10938 21.7797H12.7266V24.1797H2.10938V21.7797ZM13.4124 33.7797H4.21875V26.5797H13.7812C14.3638 26.5797 14.8359 26.0425 14.8359 25.3797C14.8359 23.6666 14.8359 18.6891 14.8359 16.9797H24.3281C24.9107 16.9797 25.3828 16.4425 25.3828 15.7797C25.3828 14.0666 25.3828 9.08906 25.3828 7.37969H33.8906V15.2019L13.4124 33.7797Z" fill="white"/>
</svg>
