<svg width="32" height="36" viewBox="0 0 32 36" fill="none" xmlns="http://www.w3.org/2000/svg">
<path d="M27.5662 4.58381C24.1558 3.97266 21.0153 2.11022 19.4467 1.05448C18.4219 0.364641 17.2301 0 15.9999 0C14.7697 0 13.5778 0.364641 12.5531 1.05448C10.9846 2.11022 7.84398 3.97273 4.43369 4.58388C2.41389 4.94578 0.947876 6.6934 0.947876 8.73914V17.2265C0.947876 20.0303 1.73228 22.7636 3.27937 25.3503C4.48966 27.374 6.16668 29.3081 8.26368 31.0989C11.7896 34.11 15.2811 35.6802 15.428 35.7455L15.9999 36L16.5719 35.7455C16.7188 35.6802 20.2103 34.11 23.7362 31.0989C25.8332 29.3081 27.5102 27.374 28.7205 25.3503C30.2676 22.7635 31.052 20.0303 31.052 17.2265V8.73907C31.052 6.69333 29.586 4.94571 27.5662 4.58381ZM28.2384 17.2264C28.2384 21.4065 26.1267 25.3387 21.9618 28.914C19.5408 30.9923 17.0828 32.347 16 32.8968C13.5108 31.632 3.76129 26.1091 3.76129 17.2265V8.73907C3.76129 8.05739 4.25277 7.4745 4.92995 7.35314C8.84762 6.65107 12.372 4.56771 14.1241 3.38843C14.6829 3.01233 15.3316 2.81348 15.9999 2.81348C16.6682 2.81348 17.3168 3.01233 17.8756 3.3885C19.6277 4.56778 23.1521 6.65114 27.0697 7.35328C27.7469 7.47464 28.2384 8.05746 28.2384 8.73921V17.2264Z" fill="white"/>
<path d="M13.8212 20.7017L9.01324 16.2005L7.09033 18.2543L14.0025 24.7256L24.9977 12.396L22.8979 10.5234L13.8212 20.7017Z" fill="white"/>
</svg>
