<svg width="36" height="36" viewBox="0 0 36 36" fill="none" xmlns="http://www.w3.org/2000/svg">
<path d="M34.9453 0H26.4727C25.8902 0 25.418 0.472219 25.418 1.05469V8.47266H18C17.4175 8.47266 16.9453 8.94487 16.9453 9.52734V16.9453H9.52734C8.94487 16.9453 8.47266 17.4175 8.47266 18V25.418H1.05469C0.472219 25.418 0 25.8902 0 26.4727V34.9453C0 35.5278 0.472219 36 1.05469 36H34.9453C35.5278 36 36 35.5278 36 34.9453V1.05469C36 0.472219 35.5278 0 34.9453 0ZM33.8906 33.8906H2.10938V27.5273H9.52734C10.1098 27.5273 10.582 27.0551 10.582 26.4727V19.0547H18C18.5825 19.0547 19.0547 18.5825 19.0547 18V10.582H26.4727C27.0551 10.582 27.5273 10.1098 27.5273 9.52734V2.10938H33.8906V33.8906Z" fill="white"/>
</svg>
