<svg width="36" height="36" viewBox="0 0 36 36" fill="none" xmlns="http://www.w3.org/2000/svg">
<path d="M33.7532 16.4962V16.496H32.2525V1.95628L33.3236 1.42128C33.6939 1.23615 33.8443 0.785167 33.6587 0.414904C33.473 0.0441496 33.0226 -0.105826 32.6523 0.0793055L0.746094 16.0325V16.4961C0.746094 17.9276 1.18118 18.9894 2.03695 19.6524C2.75877 20.2116 3.62888 20.3489 4.30782 20.3489C4.93296 20.3489 5.39653 20.2325 5.43499 20.2226C5.83598 20.1193 6.07771 19.7095 5.9733 19.3096C5.87001 18.9075 5.46135 18.6664 5.06037 18.7702C5.04715 18.7735 3.75411 19.0844 2.95537 18.4664C2.56422 18.1637 2.33353 17.6546 2.26764 16.9493L6.74785 14.7093V28.4986H3.74757C3.33336 28.4986 2.9972 28.8347 2.9972 29.2478C2.9972 29.6631 3.33336 29.9993 3.74757 29.9993V36H35.2539V16.4962H33.7532ZM26.2518 4.9572L30.7529 2.70665V16.496H27.7525C27.3372 16.496 27.0021 16.8316 27.0021 17.2458C27.0021 17.6605 27.3372 17.9962 27.7525 17.9962V19.4963H26.2518V4.9572ZM20.25 7.95755L24.7511 5.707V19.4963H21.7507C21.3365 19.4963 21.0004 19.8325 21.0004 20.2467C21.0004 20.6609 21.3365 20.997 21.7507 20.997V22.4978H20.25V7.95755ZM14.2493 10.9585L18.7504 8.70792V22.4978H15.75C15.3358 22.4978 14.9997 22.8329 14.9997 23.247C14.9997 23.6612 15.3358 23.9974 15.75 23.9974V25.497H14.2493V10.9585ZM8.24866 13.9587L12.7486 11.7082V25.4969H9.74828C9.33407 25.4969 8.99791 25.8331 8.99791 26.2484C8.99791 26.6615 9.33407 26.9977 9.74828 26.9977V28.4984H8.24866V13.9587ZM33.7533 34.4991H5.24718V29.9991H9.74828H11.249V26.9977H15.75H17.2496V23.9974H21.7507H23.2515V20.997H27.7526H29.2522V17.9962H33.7533V34.4991Z" fill="white"/>
</svg>
